<svg width="20" height="20" viewBox="0 0 20 20" fill="none" xmlns="http://www.w3.org/2000/svg">
<path d="M1.66667 10.0001C1.66667 7.25008 1.66667 5.87508 2.88667 5.02091C4.10834 4.16675 6.07167 4.16675 10 4.16675C13.9283 4.16675 15.8925 4.16675 17.1125 5.02091C18.3325 5.87508 18.3333 7.25008 18.3333 10.0001C18.3333 12.7501 18.3333 14.1251 17.1125 14.9792C15.8933 15.8334 13.9283 15.8334 10 15.8334C6.07167 15.8334 4.10751 15.8334 2.88667 14.9792C1.66584 14.1251 1.66667 12.7501 1.66667 10.0001Z" stroke="url(#paint0_linear_3_7375)" stroke-width="1.5" stroke-linecap="round" stroke-linejoin="round"/>
<path d="M8.75 8.25686V11.7435C8.75022 11.7884 8.75928 11.8328 8.77665 11.8742C8.79402 11.9155 8.81937 11.9531 8.85125 11.9846C8.88313 12.0162 8.92092 12.0412 8.96246 12.0582C9.004 12.0751 9.04847 12.0837 9.09334 12.0835C9.16095 12.0843 9.22722 12.0646 9.28334 12.0269L11.9292 10.2985C11.9762 10.2681 12.015 10.2263 12.0419 10.1771C12.0688 10.1279 12.083 10.0728 12.0833 10.0167C12.0835 9.96063 12.0698 9.90537 12.0433 9.85593C12.0168 9.80649 11.9785 9.76442 11.9317 9.73353L9.28584 7.9752C9.2102 7.92456 9.11765 7.90579 9.02826 7.92295C8.93887 7.94011 8.85985 7.99182 8.80834 8.06686C8.77002 8.12279 8.74968 8.18907 8.75 8.25686Z" stroke="url(#paint1_linear_3_7375)" stroke-width="1.5" stroke-linecap="round" stroke-linejoin="round"/>
<defs>
<linearGradient id="paint0_linear_3_7375" x1="4.14052" y1="13.6855" x2="11.9226" y2="3.69644" gradientUnits="userSpaceOnUse">
<stop stop-color="#F7E93F"/>
<stop offset="0.5112" stop-color="#FB09B4"/>
<stop offset="1" stop-color="#9100F8"/>
</linearGradient>
<linearGradient id="paint1_linear_3_7375" x1="9.24476" y1="11.3164" x2="11.9618" y2="9.36349" gradientUnits="userSpaceOnUse">
<stop stop-color="#F7E93F"/>
<stop offset="0.5112" stop-color="#FB09B4"/>
<stop offset="1" stop-color="#9100F8"/>
</linearGradient>
</defs>
</svg>
